<svg xmlns="http://www.w3.org/2000/svg" version="1.1" xmlns:xlink="http://www.w3.org/1999/xlink" width="64" height="96"><svg version="1.1" xmlns="http://www.w3.org/2000/svg" width="64" height="96">
<path d="M0 0 C21.12 0 42.24 0 64 0 C64 31.68 64 63.36 64 96 C42.88 96 21.76 96 0 96 C0 64.32 0 32.64 0 0 Z " fill="#141013" transform="translate(0,0)"></path>
<path d="M0 0 C21.12 0 42.24 0 64 0 C64 31.68 64 63.36 64 96 C42.88 96 21.76 96 0 96 C0 64.32 0 32.64 0 0 Z M2 3 C1.89948125 5.79452271 1.86384106 8.56436355 1.87060547 11.359375 C1.86885315 12.23573608 1.86710083 13.11209717 1.86529541 14.01501465 C1.86087568 16.92669627 1.86381531 19.8383177 1.8671875 22.75 C1.8665145 24.76399752 1.8655445 26.77799495 1.86428833 28.79199219 C1.86281119 33.01888805 1.86496642 37.24576283 1.86962891 41.47265625 C1.8753262 46.90380532 1.87204728 52.33490499 1.86605644 57.76605225 C1.86245126 61.92659887 1.86358922 66.08713369 1.86618423 70.24768066 C1.86685362 72.25085455 1.86602467 74.25402949 1.86370468 76.25720215 C1.86117885 79.05170552 1.86501776 81.84612771 1.87060547 84.640625 C1.86858124 85.47702515 1.86655701 86.31342529 1.86447144 87.1751709 C1.52118329 90.89057436 1.52118329 90.89057436 3 94 C4.80509373 94.09899561 6.61406928 94.12799151 8.421875 94.12939453 C9.57977539 94.13254669 10.73767578 94.13569885 11.93066406 94.13894653 C13.19104492 94.1369223 14.45142578 94.13489807 15.75 94.1328125 C17.67537598 94.13424759 17.67537598 94.13424759 19.63964844 94.13571167 C22.36003824 94.13718831 25.08039525 94.13503519 27.80078125 94.13037109 C31.29484669 94.12467381 34.78883533 94.12795299 38.28289795 94.13394356 C41.60527153 94.13841754 44.92762423 94.13528885 48.25 94.1328125 C50.14057129 94.13584885 50.14057129 94.13584885 52.06933594 94.13894653 C53.22723633 94.13579437 54.38513672 94.13264221 55.578125 94.12939453 C57.11581543 94.12820114 57.11581543 94.12820114 58.68457031 94.12698364 C60.96206254 94.26037899 60.96206254 94.26037899 62 93 C62.10051875 90.20547729 62.13615894 87.43563645 62.12939453 84.640625 C62.13114685 83.76426392 62.13289917 82.88790283 62.13470459 81.98498535 C62.13912432 79.07330373 62.13618469 76.1616823 62.1328125 73.25 C62.1334855 71.23600248 62.1344555 69.22200505 62.13571167 67.20800781 C62.13718881 62.98111195 62.13503358 58.75423717 62.13037109 54.52734375 C62.1246738 49.09619468 62.12795272 43.66509501 62.13394356 38.23394775 C62.13754874 34.07340113 62.13641078 29.91286631 62.13381577 25.75231934 C62.13314638 23.74914545 62.13397533 21.74597051 62.13629532 19.74279785 C62.13882115 16.94829448 62.13498224 14.15387229 62.12939453 11.359375 C62.13141876 10.52297485 62.13344299 9.68657471 62.13552856 8.8248291 C62.47881671 5.10942564 62.47881671 5.10942564 61 2 C59.19490627 1.90100439 57.38593072 1.87200849 55.578125 1.87060547 C54.42022461 1.86745331 53.26232422 1.86430115 52.06933594 1.86105347 C50.80895508 1.8630777 49.54857422 1.86510193 48.25 1.8671875 C46.32462402 1.86575241 46.32462402 1.86575241 44.36035156 1.86428833 C41.63996176 1.86281169 38.91960475 1.86496481 36.19921875 1.86962891 C32.70515331 1.87532619 29.21116467 1.87204701 25.71710205 1.86605644 C22.39472847 1.86158246 19.07237577 1.86471115 15.75 1.8671875 C14.48961914 1.86516327 13.22923828 1.86313904 11.93066406 1.86105347 C10.77276367 1.86420563 9.61486328 1.86735779 8.421875 1.87060547 C6.88418457 1.87179886 6.88418457 1.87179886 5.31542969 1.87301636 C3.03793746 1.73962101 3.03793746 1.73962101 2 3 Z " fill="#F5F5F5" transform="translate(0,0)"></path>
<path d="M0 0 C0.721875 0.00257812 1.44375 0.00515625 2.1875 0.0078125 C2.909375 0.00523438 3.63125 0.00265625 4.375 0 C6.1875 0.1328125 6.1875 0.1328125 7.1875 1.1328125 C7.2854057 2.63019374 7.31724864 4.13224142 7.3125 5.6328125 C7.31507812 6.4475 7.31765625 7.2621875 7.3203125 8.1015625 C7.1875 10.1328125 7.1875 10.1328125 6.1875 11.1328125 C4.375 11.265625 4.375 11.265625 2.1875 11.2578125 C1.465625 11.26039062 0.74375 11.26296875 0 11.265625 C-1.8125 11.1328125 -1.8125 11.1328125 -2.8125 10.1328125 C-2.9104057 8.63543126 -2.94224864 7.13338358 -2.9375 5.6328125 C-2.94007812 4.818125 -2.94265625 4.0034375 -2.9453125 3.1640625 C-2.77508045 0.56051352 -2.60782823 0.19109086 0 0 Z " fill="#FFFFFF" transform="translate(29.8125,28.8671875)"></path>
<path d="M0 0 C0.721875 0.00257812 1.44375 0.00515625 2.1875 0.0078125 C2.909375 0.00523438 3.63125 0.00265625 4.375 0 C6.1875 0.1328125 6.1875 0.1328125 7.1875 1.1328125 C7.23193347 3.13231886 7.22670815 5.13319686 7.1875 7.1328125 C7.1875 8.4528125 7.1875 9.7728125 7.1875 11.1328125 C4.52083333 9.79947917 1.85416667 8.46614583 -0.8125 7.1328125 C-0.8125 8.4528125 -0.8125 9.7728125 -0.8125 11.1328125 C-1.4725 11.1328125 -2.1325 11.1328125 -2.8125 11.1328125 C-2.83938151 9.48706684 -2.85884123 7.84119837 -2.875 6.1953125 C-2.88660156 5.27878906 -2.89820312 4.36226563 -2.91015625 3.41796875 C-2.79196538 0.65230237 -2.76200837 0.20238854 0 0 Z " fill="#FFFFFF" transform="translate(29.8125,70.8671875)"></path>
<path d="M0 0 C1.23556641 0.01740234 1.23556641 0.01740234 2.49609375 0.03515625 C3.32238281 0.04417969 4.14867187 0.05320313 5 0.0625 C5.63808594 0.07410156 6.27617188 0.08570313 6.93359375 0.09765625 C6.93359375 0.75765625 6.93359375 1.41765625 6.93359375 2.09765625 C4.29359375 2.09765625 1.65359375 2.09765625 -1.06640625 2.09765625 C-1.06640625 2.75765625 -1.06640625 3.41765625 -1.06640625 4.09765625 C0.25359375 4.09765625 1.57359375 4.09765625 2.93359375 4.09765625 C2.93359375 5.08765625 2.93359375 6.07765625 2.93359375 7.09765625 C1.61359375 7.09765625 0.29359375 7.09765625 -1.06640625 7.09765625 C-1.06640625 7.75765625 -1.06640625 8.41765625 -1.06640625 9.09765625 C1.57359375 9.09765625 4.21359375 9.09765625 6.93359375 9.09765625 C6.93359375 9.75765625 6.93359375 10.41765625 6.93359375 11.09765625 C5.45452483 11.12454841 3.97531892 11.14400246 2.49609375 11.16015625 C1.26052734 11.17755859 1.26052734 11.17755859 0 11.1953125 C-2.06640625 11.09765625 -2.06640625 11.09765625 -3.06640625 10.09765625 C-3.16431195 8.60027501 -3.19615489 7.09822733 -3.19140625 5.59765625 C-3.19398437 4.78296875 -3.1965625 3.96828125 -3.19921875 3.12890625 C-3.01779538 0.35419587 -2.78048479 0.13140287 0 0 Z " fill="#FFFFFF" transform="translate(30.06640625,56.90234375)"></path>
<path d="M0 0 C0.66 0 1.32 0 2 0 C2 1.32 2 2.64 2 4 C4.9719385 2.87548273 7.33440687 1.77706209 10 0 C9.835 0.598125 9.67 1.19625 9.5 1.8125 C8.73565728 5.15649939 9.1036361 7.75068088 10 11 C9.4225 10.525625 8.845 10.05125 8.25 9.5625 C6.07417916 8.0515133 4.57397552 7.45963849 2 7 C2 8.32 2 9.64 2 11 C1.34 11 0.68 11 0 11 C0 7.37 0 3.74 0 0 Z " fill="#FFFFFF" transform="translate(27,43)"></path>
<path d="M0 0 C3.3 0 6.6 0 10 0 C10 0.66 10 1.32 10 2 C9.01 2 8.02 2 7 2 C7 4.97 7 7.94 7 11 C5.02 11 3.04 11 1 11 C0.67 9.68 0.34 8.36 0 7 C0.66 7 1.32 7 2 7 C2 7.66 2 8.32 2 9 C2.99 9 3.98 9 5 9 C5 6.69 5 4.38 5 2 C3.35 2 1.7 2 0 2 C0 1.34 0 0.68 0 0 Z " fill="#FFFFFF" transform="translate(27,15)"></path>
<path d="M0 0 C1.98 0 3.96 0 6 0 C6 2.31 6 4.62 6 7 C4.02 7 2.04 7 0 7 C0 4.69 0 2.38 0 0 Z " fill="#141013" transform="translate(29,31)"></path>
<path d="M0 0 C1.98 0 3.96 0 6 0 C6 0.99 6 1.98 6 3 C4.02 3 2.04 3 0 3 C0 2.01 0 1.02 0 0 Z " fill="#141013" transform="translate(29,73)"></path>
</svg><style>@media (prefers-color-scheme: light) { :root { filter: none; } }
@media (prefers-color-scheme: dark) { :root { filter: none; } }
</style></svg>